<svg xmlns="http://www.w3.org/2000/svg" width="1400" height="400" viewBox="0 0 1400 400" role="img" aria-label="PulseMetrics: the scoreboard for a subscription software business. Monthly recurring revenue grew from $0 to $50.9K between 2025-01 and 2026-08.">
  <rect x="0.5" y="0.5" width="1399" height="399" rx="20" fill="#f6f7f8" stroke="#e4e7ea"/>
  <g stroke="#e4e7ea" stroke-width="1"><path d="M780 330H1340M780 250H1340M780 170H1340"/></g>
  <path d="M780.0,330.0 L809.5,328.3 L838.9,322.6 L868.4,314.4 L897.9,302.6 L927.4,294.3 L956.8,285.3 L986.3,272.3 L1015.8,260.9 L1045.3,252.1 L1074.7,238.8 L1104.2,229.9 L1133.7,214.4 L1163.2,199.3 L1192.6,186.5 L1222.1,168.9 L1251.6,156.2 L1281.1,135.9 L1310.5,118.0 L1340.0,107.8 L1340.0,330 L780.0,330 Z" fill="#3b6ea8" fill-opacity="0.10"/>
  <path d="M780.0,330.0 L809.5,328.3 L838.9,322.6 L868.4,314.4 L897.9,302.6 L927.4,294.3 L956.8,285.3 L986.3,272.3 L1015.8,260.9 L1045.3,252.1 L1074.7,238.8 L1104.2,229.9 L1133.7,214.4 L1163.2,199.3 L1192.6,186.5 L1222.1,168.9 L1251.6,156.2 L1281.1,135.9 L1310.5,118.0 L1340.0,107.8" fill="none" stroke="#3b6ea8" stroke-width="3" stroke-linejoin="round" stroke-linecap="round"/>
  <circle cx="1340.0" cy="107.8" r="6" fill="#3b6ea8" stroke="#f6f7f8" stroke-width="3"/>
  <g font-family="Inter,system-ui,-apple-system,Segoe UI,sans-serif">
    <text x="1328.0" y="91.8" fill="#172026" font-size="15" font-weight="600" text-anchor="end">$50.9K a month</text>
    <text x="780" y="356" fill="#8a939b" font-size="13">2025-01</text>
    <text x="1340" y="356" fill="#8a939b" font-size="13" text-anchor="end">2026-08</text>
    <text x="780" y="70" fill="#8a939b" font-size="13">Monthly recurring revenue (demo data)</text>
    <text x="64" y="112" fill="#0f766e" font-size="14" font-weight="600" letter-spacing="3">SUBSCRIPTION BUSINESS ANALYTICS</text>
    <text x="62" y="176" fill="#172026" font-size="60" font-weight="700" letter-spacing="-1">PulseMetrics</text>
    <text x="64" y="222" fill="#4a555e" font-size="22">The scoreboard for a subscription software</text>
    <text x="64" y="252" fill="#4a555e" font-size="22">business: revenue, new customers, usage,</text>
    <text x="64" y="282" fill="#4a555e" font-size="22">who stays, and whether product changes work.</text>
  </g>
</svg>
